<?xml version="1.0" encoding="UTF-8" standalone="no"?><!DOCTYPE svg PUBLIC "-//W3C//DTD SVG 1.1//EN" "http://www.w3.org/Graphics/SVG/1.1/DTD/svg11.dtd"><svg width="100%" height="100%" viewBox="0 0 1100 1100" version="1.1" xmlns="http://www.w3.org/2000/svg" xmlns:xlink="http://www.w3.org/1999/xlink" xml:space="preserve" xmlns:serif="http://www.serif.com/" style="fill-rule:evenodd;clip-rule:evenodd;stroke-linejoin:round;stroke-miterlimit:2;"><rect id="画板1" x="0" y="0" width="1100" height="1100" style="fill:none;"/><g><rect x="80" y="16.486" width="940" height="1067.03" style="fill:#ebebeb;"/><rect x="143.514" y="67.297" width="812.973" height="711.351" style="fill:#ff4242;"/><g transform="matrix(707.562,0,0,707.562,675.533,674.158)"></g><text x="134.248px" y="674.158px" style="font-family:'WD-XLLubrifontSC-Regular', 'WD-XL Lubrifont SC';font-size:707.562px;fill:#fff;">佛</text><g transform="matrix(379.185,0,0,379.185,128.346,1059.64)"><path d="M0.04,-0l0,-0.7l0.26,0l0.09,0.244l0.09,-0.244l0.26,0l0,0.7l-0.216,-0l0,-0.417l-0.094,0.237l-0.08,-0l-0.094,-0.237l0,0.417l-0.216,-0Z" style="fill-rule:nonzero;"/></g><g transform="matrix(379.185,0,0,379.185,424.111,1059.64)"><path d="M0.26,-0.19l0.12,0l0,-0.32l-0.12,0l0,0.32Zm-0.22,0.19l-0,-0.7l0.41,0l0.15,0.15l-0,0.4l-0.15,0.15l-0.41,0Z" style="fill-rule:nonzero;"/></g><g transform="matrix(379.185,0,0,379.185,664.893,1059.64)"></g></g></svg>